# Cone mesh for 3DOF arm simulation
v 0.000000 0.000000 0.020000
v 0.000000 0.000000 -0.020000
v 0.020000 0.000000 -0.020000
v 0.018478 0.007654 -0.020000
v 0.014142 0.014142 -0.020000
v 0.007654 0.018478 -0.020000
v 0.000000 0.020000 -0.020000
v -0.007654 0.018478 -0.020000
v -0.014142 0.014142 -0.020000
v -0.018478 0.007654 -0.020000
v -0.020000 0.000000 -0.020000
v -0.018478 -0.007654 -0.020000
v -0.014142 -0.014142 -0.020000
v -0.007654 -0.018478 -0.020000
v -0.000000 -0.020000 -0.020000
v 0.007654 -0.018478 -0.020000
v 0.014142 -0.014142 -0.020000
v 0.018478 -0.007654 -0.020000
f 1 3 4
f 1 4 5
f 1 5 6
f 1 6 7
f 1 7 8
f 1 8 9
f 1 9 10
f 1 10 11
f 1 11 12
f 1 12 13
f 1 13 14
f 1 14 15
f 1 15 16
f 1 16 17
f 1 17 18
f 1 18 3
f 2 4 3
f 2 5 4
f 2 6 5
f 2 7 6
f 2 8 7
f 2 9 8
f 2 10 9
f 2 11 10
f 2 12 11
f 2 13 12
f 2 14 13
f 2 15 14
f 2 16 15
f 2 17 16
f 2 18 17
f 2 3 18
